<svg width="120" height="28" viewBox="0 0 120 28" fill="none" xmlns="http://www.w3.org/2000/svg">
<path d="M0.981534 27V0.818181H11.7969C13.7571 0.818181 15.4489 1.17187 16.8722 1.87926C18.304 2.57812 19.4077 3.58381 20.1832 4.89631C20.9588 6.20028 21.3466 7.74716 21.3466 9.53693C21.3466 11.3523 20.9503 12.8949 20.1577 14.1648C19.3651 15.4261 18.2401 16.3892 16.7827 17.054C15.3253 17.7102 13.5994 18.0384 11.6051 18.0384H4.76562V13.0526H10.429C11.3835 13.0526 12.1804 12.929 12.8196 12.6818C13.4673 12.4261 13.9574 12.0426 14.2898 11.5312C14.6222 11.0114 14.7884 10.3466 14.7884 9.53693C14.7884 8.72727 14.6222 8.05824 14.2898 7.52983C13.9574 6.9929 13.4673 6.59233 12.8196 6.32812C12.1719 6.0554 11.375 5.91903 10.429 5.91903H7.30966V27H0.981534ZM15.7216 15.0341L22.2415 27H15.3381L8.94602 15.0341H15.7216ZM33.6097 27.3707C31.5558 27.3707 29.783 26.9659 28.2915 26.1562C26.8086 25.3381 25.6665 24.1747 24.8654 22.6662C24.0728 21.1491 23.6765 19.3466 23.6765 17.2585C23.6765 15.2301 24.0771 13.4574 24.8782 11.9403C25.6793 10.4148 26.8086 9.23011 28.266 8.38636C29.7234 7.53409 31.4407 7.10795 33.418 7.10795C34.8157 7.10795 36.0941 7.32528 37.2532 7.75994C38.4123 8.1946 39.4137 8.83807 40.2575 9.69034C41.1012 10.5426 41.7575 11.5952 42.2262 12.848C42.695 14.0923 42.9293 15.5199 42.9293 17.1307V18.6903H25.8626V15.0597H37.1126C37.104 14.3949 36.9464 13.8026 36.6396 13.2827C36.3327 12.7628 35.9109 12.358 35.3739 12.0682C34.8455 11.7699 34.2362 11.6207 33.5458 11.6207C32.8469 11.6207 32.2205 11.7784 31.6665 12.0938C31.1126 12.4006 30.6737 12.8224 30.3498 13.3594C30.0259 13.8878 29.8555 14.4886 29.8384 15.1619V18.8565C29.8384 19.6577 29.9961 20.3608 30.3114 20.9659C30.6268 21.5625 31.0742 22.027 31.6538 22.3594C32.2333 22.6918 32.9237 22.858 33.7248 22.858C34.2788 22.858 34.7816 22.7812 35.2333 22.6278C35.685 22.4744 36.0728 22.2486 36.3967 21.9503C36.7205 21.652 36.9634 21.2855 37.1254 20.8509L42.8654 21.017C42.6268 22.304 42.1026 23.4247 41.293 24.3793C40.4918 25.3253 39.4393 26.0625 38.1353 26.5909C36.8313 27.1108 35.3228 27.3707 33.6097 27.3707ZM51.6577 27.3324C50.4048 27.3324 49.2926 27.1236 48.321 26.706C47.358 26.2798 46.5952 25.6406 46.0327 24.7884C45.4787 23.9276 45.2017 22.8494 45.2017 21.554C45.2017 20.4631 45.3935 19.5426 45.777 18.7926C46.1605 18.0426 46.6889 17.4332 47.3622 16.9645C48.0355 16.4957 48.8111 16.142 49.6889 15.9034C50.5668 15.6562 51.5043 15.4901 52.5014 15.4048C53.6179 15.3026 54.517 15.196 55.1989 15.0852C55.8807 14.9659 56.375 14.7997 56.6818 14.5866C56.9972 14.3651 57.1548 14.054 57.1548 13.6534V13.5895C57.1548 12.9332 56.929 12.4261 56.4773 12.0682C56.0256 11.7102 55.4162 11.5312 54.6491 11.5312C53.8224 11.5312 53.1577 11.7102 52.6548 12.0682C52.152 12.4261 51.8324 12.9205 51.696 13.5511L45.9304 13.3466C46.1009 12.1534 46.5398 11.0881 47.2472 10.1506C47.9631 9.20455 48.9432 8.46307 50.1875 7.92614C51.4403 7.38068 52.9446 7.10795 54.7003 7.10795C55.9531 7.10795 57.108 7.2571 58.1648 7.5554C59.2216 7.84517 60.142 8.27131 60.9261 8.83381C61.7102 9.38778 62.3153 10.0696 62.7415 10.8793C63.1761 11.6889 63.3935 12.6136 63.3935 13.6534V27H57.5128V24.2642H57.3594C57.0099 24.929 56.5625 25.4915 56.017 25.9517C55.4801 26.4119 54.8452 26.7571 54.1122 26.9872C53.3878 27.2173 52.5696 27.3324 51.6577 27.3324ZM53.5881 23.2415C54.2614 23.2415 54.8665 23.1051 55.4034 22.8324C55.9489 22.5597 56.3835 22.1847 56.7074 21.7074C57.0313 21.2216 57.1932 20.6591 57.1932 20.0199V18.1534C57.0142 18.2472 56.7969 18.3324 56.5412 18.4091C56.294 18.4858 56.0213 18.5582 55.723 18.6264C55.4247 18.6946 55.1179 18.7543 54.8026 18.8054C54.4872 18.8565 54.1847 18.9034 53.8949 18.946C53.3068 19.0398 52.804 19.1847 52.3864 19.3807C51.9773 19.5767 51.6619 19.8324 51.4403 20.1477C51.2273 20.4545 51.1207 20.821 51.1207 21.2472C51.1207 21.8949 51.3509 22.3892 51.8111 22.7301C52.2798 23.071 52.8722 23.2415 53.5881 23.2415ZM74.3878 27.2812C72.9389 27.2812 71.6222 26.9062 70.4375 26.1562C69.2528 25.4062 68.3068 24.2812 67.5994 22.7812C66.892 21.2812 66.5384 19.419 66.5384 17.1946C66.5384 14.8849 66.9048 12.9844 67.6378 11.4929C68.3707 10.0014 69.3295 8.89773 70.5142 8.18182C71.7074 7.46591 72.9901 7.10795 74.3622 7.10795C75.3935 7.10795 76.2756 7.28693 77.0085 7.64489C77.7415 7.99432 78.3466 8.44602 78.8239 9C79.3011 9.55398 79.6634 10.1293 79.9105 10.7259H80.0384V0.818181H86.2898V27H80.1023V23.8168H79.9105C79.6463 24.4219 79.2713 24.9886 78.7855 25.517C78.2997 26.0455 77.6903 26.4716 76.9574 26.7955C76.233 27.1193 75.3764 27.2812 74.3878 27.2812ZM76.5611 22.4105C77.3196 22.4105 77.9673 22.1974 78.5043 21.7713C79.0412 21.3366 79.4545 20.7273 79.7443 19.9432C80.0341 19.1591 80.179 18.2386 80.179 17.1818C80.179 16.108 80.0341 15.1832 79.7443 14.4077C79.4631 13.6321 79.0497 13.0355 78.5043 12.6179C77.9673 12.2003 77.3196 11.9915 76.5611 11.9915C75.7855 11.9915 75.1293 12.2045 74.5923 12.6307C74.0554 13.0568 73.6463 13.6577 73.3651 14.4332C73.0923 15.2088 72.956 16.125 72.956 17.1818C72.956 18.2386 73.0966 19.1591 73.3778 19.9432C73.6591 20.7273 74.0639 21.3366 74.5923 21.7713C75.1293 22.1974 75.7855 22.4105 76.5611 22.4105Z" fill="white"/>
<path d="M104.306 0.818181V27H97.9776V0.818181H104.306ZM119.362 7.36364V11.9659H106.974V7.36364H119.362ZM109.57 2.65909H115.821V20.8253C115.821 21.2088 115.881 21.5199 116 21.7585C116.128 21.9886 116.311 22.1548 116.55 22.2571C116.788 22.3509 117.074 22.3977 117.406 22.3977C117.645 22.3977 117.896 22.3764 118.161 22.3338C118.433 22.2827 118.638 22.2401 118.774 22.206L119.72 26.7188C119.422 26.804 119 26.9105 118.455 27.0384C117.918 27.1662 117.274 27.2472 116.524 27.2812C115.058 27.3494 113.801 27.179 112.753 26.7699C111.713 26.3523 110.916 25.7045 110.362 24.8267C109.817 23.9489 109.553 22.8452 109.57 21.5156V2.65909Z" fill="#69F590"/>
</svg>
